<?xml version="1.0" standalone="no"?>
<!DOCTYPE svg PUBLIC "-//W3C//DTD SVG 20010904//EN"
 "http://www.w3.org/TR/2001/REC-SVG-20010904/DTD/svg10.dtd">
<svg version="1.0" xmlns="http://www.w3.org/2000/svg"
 width="280.000000pt" height="60.000000pt" viewBox="0 0 300.000000 79.000000"
 preserveAspectRatio="xMidYMid meet">
<metadata>
Created by potrace 1.10, written by Peter Selinger 2001-2011
</metadata>
<g transform="translate(0.000000,79.000000) scale(0.100000,-0.100000)"
fill="#000000" stroke="none">
<path d="M10 565 c0 -28 4 -35 20 -35 11 0 20 5 20 10 0 6 5 10 10 10 6 0 10
-28 10 -64 0 -36 -4 -68 -10 -71 -5 -3 -10 -15 -10 -26 0 -16 7 -19 45 -19 41
0 45 2 45 25 0 14 -4 25 -10 25 -6 0 -10 28 -10 65 0 37 4 65 10 65 6 0 10 -4
10 -10 0 -5 11 -10 25 -10 22 0 25 4 25 35 l0 35 -90 0 -90 0 0 -35z"/>
<path d="M216 578 c-11 -16 -16 -46 -16 -99 0 -93 12 -109 87 -109 72 0 83 16
83 117 0 98 -12 113 -88 113 -41 0 -54 -4 -66 -22z m99 -93 c0 -60 0 -60 -30
-60 -29 0 -30 2 -33 49 -4 65 2 78 35 74 27 -3 28 -5 28 -63z"/>
<path d="M382 575 c1 -14 6 -25 11 -25 11 0 4 -136 -7 -162 -7 -16 0 -18 78
-18 l86 0 0 30 c0 33 -12 37 -68 21 l-32 -10 0 70 c0 39 4 69 10 69 6 0 10 11
10 25 0 23 -4 25 -45 25 -42 0 -45 -2 -43 -25z"/>
<path d="M581 584 c-16 -19 -16 -181 1 -201 6 -8 33 -13 66 -13 73 0 81 12 82
116 0 66 -3 84 -18 97 -24 22 -112 22 -131 1z m94 -99 c0 -60 0 -60 -30 -60
-29 0 -30 2 -33 48 -4 54 11 79 42 75 19 -3 21 -10 21 -63z"/>
<path d="M767 582 c-20 -22 -22 -85 -4 -100 7 -6 30 -12 52 -14 33 -2 41 -7
43 -27 4 -23 3 -23 -52 -17 l-56 7 0 -30 0 -31 68 0 c40 0 73 5 80 12 16 16
15 103 -1 116 -7 6 -30 12 -52 14 -47 4 -57 31 -12 36 15 2 27 -1 27 -7 0 -6
11 -11 25 -11 22 0 25 4 25 35 l0 35 -63 0 c-49 0 -68 -4 -80 -18z"/>
<path d="M960 576 c0 -13 4 -26 10 -28 11 -4 -19 -128 -31 -128 -5 0 -9 -11
-9 -25 0 -23 4 -25 41 -25 l42 0 -6 35 c-5 31 -3 35 17 35 31 0 36 -7 26 -41
-9 -29 -9 -29 36 -29 38 0 44 3 44 21 0 11 -6 26 -13 34 -7 7 -22 49 -32 94
l-18 81 -54 0 c-49 0 -53 -2 -53 -24z m80 -71 c0 -14 -6 -25 -14 -25 -9 0 -12
8 -8 25 2 14 8 25 13 25 5 0 9 -11 9 -25z"/>
<path d="M1220 575 c0 -14 5 -25 10 -25 6 0 10 -31 10 -73 0 -88 14 -107 79
-107 61 0 71 15 71 104 0 44 4 76 10 76 6 0 10 11 10 25 0 23 -4 25 -44 25
-41 0 -44 -2 -42 -25 0 -14 4 -25 9 -25 4 0 7 -26 7 -58 0 -62 -14 -89 -37
-71 -15 13 -18 129 -3 129 6 0 10 11 10 25 0 23 -4 25 -45 25 -41 0 -45 -2
-45 -25z"/>
<path d="M1424 575 c0 -14 4 -25 9 -25 11 0 8 -128 -3 -135 -5 -3 -10 -15 -10
-26 0 -16 7 -19 45 -19 38 0 45 3 45 19 0 11 -4 23 -10 26 -5 3 -10 25 -10 48
l0 42 32 -67 c27 -60 34 -68 58 -68 l28 0 -3 90 c-1 50 2 90 7 90 4 0 8 11 8
25 0 23 -4 25 -40 25 -36 0 -40 -3 -40 -24 0 -13 5 -26 11 -28 6 -2 9 -21 7
-43 l-3 -40 -32 68 c-30 64 -34 67 -66 67 -31 0 -35 -3 -33 -25z"/>
<path d="M1640 575 c0 -14 5 -25 10 -25 6 0 10 -28 10 -65 0 -37 -4 -65 -10
-65 -5 0 -10 -11 -10 -25 0 -22 4 -25 40 -25 36 0 40 3 40 25 0 14 -4 25 -10
25 -6 0 -10 28 -10 65 0 37 4 65 10 65 6 0 10 11 10 25 0 23 -4 25 -40 25 -36
0 -40 -2 -40 -25z"/>
<path d="M1740 576 c0 -13 4 -26 8 -28 5 -1 18 -41 28 -88 l19 -85 40 -3 40
-3 19 83 c10 46 22 88 26 93 4 6 10 20 13 33 5 20 2 22 -39 22 -40 0 -44 -2
-44 -25 0 -14 4 -25 9 -25 5 0 2 -28 -7 -62 l-16 -63 -12 50 c-6 28 -9 67 -7
88 l6 37 -42 0 c-37 0 -41 -3 -41 -24z"/>
<path d="M1950 575 c0 -14 5 -25 10 -25 6 0 10 -28 10 -65 0 -37 -4 -65 -10
-65 -5 0 -10 -11 -10 -25 0 -25 1 -25 85 -25 l85 0 0 30 c0 33 -12 37 -68 21
-31 -9 -32 -9 -32 20 0 26 3 29 34 29 30 0 33 2 29 25 -4 21 -9 23 -34 18 -25
-5 -29 -2 -29 16 0 16 6 21 25 21 14 0 25 -4 25 -10 0 -5 11 -10 25 -10 22 0
25 4 25 35 l0 35 -85 0 c-84 0 -85 0 -85 -25z"/>
<path d="M2130 575 c0 -14 5 -25 10 -25 6 0 10 -28 10 -64 0 -36 -4 -68 -10
-71 -5 -3 -10 -15 -10 -26 0 -16 7 -19 44 -19 l45 0 -10 32 c-11 41 -12 68 -1
68 15 0 30 -45 25 -73 -5 -26 -3 -27 36 -27 37 0 41 2 41 25 0 14 -6 25 -13
25 -8 0 -18 10 -24 22 -8 19 -6 25 11 33 24 12 34 72 16 105 -9 18 -20 20 -90
20 -79 0 -80 0 -80 -25z m133 -32 c12 -11 -14 -33 -39 -33 -17 0 -24 6 -24 20
0 15 7 20 28 20 16 0 32 -3 35 -7z"/>
<path d="M2346 581 c-18 -20 -21 -63 -6 -92 8 -14 21 -19 49 -19 45 0 70 -22
52 -44 -9 -11 -20 -12 -44 -5 -55 16 -67 12 -67 -21 l0 -30 69 0 c78 0 88 7
92 67 4 50 -13 73 -55 73 -37 0 -61 14 -52 29 9 14 53 15 61 1 3 -5 14 -10 24
-10 14 0 20 9 23 34 l4 34 -67 1 c-52 0 -70 -3 -83 -18z"/>
<path d="M2510 575 c0 -14 5 -25 10 -25 6 0 10 -28 10 -64 0 -36 -4 -68 -10
-71 -5 -3 -10 -15 -10 -26 0 -16 7 -19 44 -19 l44 0 -10 38 c-6 20 -8 71 -5
115 l6 77 -39 0 c-36 0 -40 -3 -40 -25z"/>
<path d="M2610 565 c0 -31 3 -35 25 -35 14 0 25 5 25 10 0 6 5 10 10 10 6 0
10 -28 10 -65 0 -37 -4 -65 -10 -65 -5 0 -10 -11 -10 -25 0 -23 4 -25 46 -25
30 0 43 4 39 11 -4 6 -10 46 -14 90 -5 61 -4 79 6 79 7 0 13 -4 13 -10 0 -5 9
-10 20 -10 16 0 20 7 20 35 l0 35 -90 0 -90 0 0 -35z"/>
<path d="M2810 575 c0 -14 6 -25 13 -25 15 0 57 -81 57 -110 0 -11 -4 -20 -10
-20 -5 0 -10 -11 -10 -25 0 -22 4 -25 40 -25 36 0 40 3 40 25 0 14 -4 25 -10
25 -5 0 -10 9 -10 20 0 29 42 110 57 110 7 0 13 11 13 25 0 23 -4 25 -40 25
-40 0 -41 0 -38 -35 1 -19 -1 -37 -5 -41 -13 -13 -21 6 -19 41 3 35 2 35 -38
35 -36 0 -40 -2 -40 -25z"/>
<path d="M756 325 c-62 -22 -74 -58 -20 -63 32 -2 75 16 81 35 4 9 -6 9 -38
-2 -27 -10 -46 -12 -52 -6 -13 13 59 34 98 29 23 -2 31 -9 33 -27 3 -18 -11
-37 -57 -82 -33 -33 -69 -59 -81 -59 -28 0 -25 8 8 21 16 7 22 13 14 16 -15 6
-62 -23 -62 -38 0 -36 74 -14 133 40 110 99 75 183 -57 136z"/>
<path d="M1095 333 c-53 -14 -103 -76 -75 -93 14 -9 67 6 76 22 4 6 -8 7 -30
3 -46 -9 -47 7 -2 34 31 20 66 28 66 16 0 -14 -36 -74 -71 -119 -22 -27 -39
-53 -39 -57 0 -12 69 17 92 38 20 18 23 11 8 -18 -19 -35 13 -22 57 24 48 49
63 76 63 111 0 40 -17 39 -24 -2 -3 -21 -20 -58 -37 -81 -34 -48 -49 -49 -25
-2 9 16 16 38 15 48 0 17 -1 17 -12 -1 -23 -37 -59 -77 -79 -87 -13 -7 -6 8
22 50 60 87 58 130 -5 114z"/>
<path d="M1314 265 c-42 -48 -65 -95 -48 -95 10 0 49 54 46 63 -1 5 2 6 8 2 5
-3 11 -1 11 4 1 6 2 15 3 20 0 5 5 13 10 18 6 5 6 2 1 -7 -5 -8 4 -4 18 9 25
22 28 41 7 41 -5 0 -30 -25 -56 -55z"/>
<path d="M2221 306 c-7 -9 -23 -16 -35 -16 -17 0 -18 -2 -6 -10 12 -8 10 -15
-16 -42 -40 -43 -35 -67 13 -63 34 4 60 15 33 15 -9 0 -5 9 10 25 13 14 28 25
33 25 6 0 1 -10 -11 -23 -15 -15 -18 -27 -12 -37 7 -12 12 -12 22 -2 6 6 8 12
4 12 -5 0 -1 12 9 26 14 21 14 28 4 35 -13 8 -69 -15 -69 -29 0 -4 -12 -16
-27 -26 -27 -20 -26 -17 17 47 24 35 27 37 83 37 36 0 56 4 52 10 -3 6 -24 10
-45 10 -21 0 -40 5 -42 11 -2 7 -9 5 -17 -5z"/>
<path d="M1678 280 c-12 -16 -29 -30 -37 -30 -9 0 -36 -14 -60 -30 -24 -17
-51 -30 -60 -30 -9 0 1 11 22 25 38 26 48 45 23 45 -19 0 -66 -46 -66 -65 0
-24 25 -28 54 -9 24 15 26 15 20 0 -7 -18 3 -20 26 -6 9 6 17 5 21 -2 4 -7 13
-7 27 1 15 8 22 8 25 -2 3 -8 10 -7 23 7 11 10 13 16 7 12 -18 -10 -16 4 3 25
9 11 11 19 5 23 -5 4 -15 -2 -21 -13 -6 -12 -20 -25 -31 -32 -18 -9 -19 -8
-11 8 6 10 24 35 41 57 34 42 36 46 21 46 -5 0 -19 -13 -32 -30z"/>
<path d="M2051 266 c-7 -8 -13 -25 -13 -38 -1 -13 -6 -29 -11 -36 -15 -19 0
-27 27 -14 17 8 27 7 35 -1 8 -8 16 -7 29 6 16 17 16 18 -2 11 -19 -7 -19 -7
-3 16 24 35 21 47 -5 24 -51 -45 -56 -46 -50 -19 2 14 8 28 13 31 12 7 12 34
0 34 -5 0 -14 -6 -20 -14z"/>
<path d="M1428 223 c-17 -18 -34 -30 -37 -28 -2 3 1 11 7 17 7 7 12 19 12 27
0 10 -11 4 -33 -17 -18 -18 -39 -32 -47 -32 -10 0 -5 9 13 25 31 29 33 35 12
35 -8 0 -14 -4 -12 -9 1 -4 -9 -18 -23 -29 -20 -16 -22 -23 -13 -33 10 -10 18
-10 38 -1 14 7 25 8 25 2 0 -5 8 -7 18 -3 13 5 11 0 -7 -20 -14 -15 -21 -30
-17 -34 4 -5 18 5 31 21 14 17 36 31 52 34 31 4 36 7 39 25 2 7 6 21 9 32 10
33 -30 26 -67 -12z"/>
<path d="M1747 234 c-27 -18 -34 -29 -30 -44 6 -22 30 -22 25 0 -3 14 26 50
41 50 6 0 3 -8 -6 -18 -10 -10 -14 -22 -10 -27 5 -4 1 -4 -7 0 -13 8 -13 6 -1
-8 16 -20 34 -12 71 29 l25 28 -39 -29 c-38 -27 -39 -28 -23 -5 21 30 21 36 3
43 -7 3 -30 -5 -49 -19z"/>
<path d="M1980 243 c-18 -13 -25 -14 -28 -4 -3 8 -16 1 -39 -21 -33 -31 -35
-31 -18 -5 23 35 12 47 -14 16 -39 -47 -15 -77 28 -35 33 32 38 32 37 4 -1
-32 27 -33 60 -2 l29 26 -27 -16 c-35 -21 -60 -21 -33 0 11 8 19 19 18 24 -1
4 3 7 10 6 7 0 13 3 15 9 6 17 -12 16 -38 -2z"/>
<path d="M2311 243 c-5 -10 -10 -22 -11 -28 -1 -5 -4 -12 -7 -15 -4 -3 -3 1 1
8 9 15 -6 16 -21 1 -6 -6 -9 -18 -6 -25 8 -20 41 -17 53 5 5 11 19 23 30 26
11 3 20 11 20 17 0 6 -6 6 -15 -2 -20 -17 -32 -5 -15 15 10 12 10 15 -3 15 -9
0 -21 -8 -26 -17z"/>
<path d="M868 212 c-27 -44 -16 -53 17 -13 32 37 54 42 31 6 -20 -31 -20 -35
2 -35 10 0 33 16 52 35 19 19 29 35 22 35 -7 0 -12 -4 -12 -9 0 -5 -12 -17
-27 -27 l-28 -17 18 26 c23 36 22 37 -19 34 -28 -1 -40 -9 -56 -35z"/>
<path d="M1232 219 c-25 -39 -13 -65 16 -35 9 11 11 16 5 12 -16 -9 -17 6 -2
21 6 6 9 17 7 24 -2 7 -13 -3 -26 -22z"/>
<path d="M177 233 c90 -2 236 -2 325 0 90 1 17 3 -162 3 -179 0 -252 -2 -163
-3z"/>
<path d="M2542 233 c82 -2 214 -2 296 0 81 1 14 3 -148 3 -162 0 -229 -2 -148
-3z"/>
</g>
</svg>
